<svg xmlns="http://www.w3.org/2000/svg" width="511.805" height="416.853" viewBox="0 0 511.805 416.853"><g transform="translate(0 -51.751)"><path d="M497.5,126.4c-1,0-20.7-.7-49.8-.1V66.8a15.059,15.059,0,0,0-16.3-15C373.5,56.6,299.9,82.2,256,128.9,212.1,82.2,138.5,56.6,80.6,51.8a15.059,15.059,0,0,0-16.3,15v61.1c-16.5-.6-32.1-1.1-48.8-1.6A15.174,15.174,0,0,0,0,141.4V415.6a14.994,14.994,0,0,0,14,15c59.9,4,160.2,4.5,236,36.8a14.764,14.764,0,0,0,11.8,0c75.8-32.3,176.1-32.8,236-36.8a14.994,14.994,0,0,0,14-15V141.4a14.705,14.705,0,0,0-14.3-15ZM417.6,83.8V341.9c-43.4,9.7-98.5,30.4-146.5,74.4V157.5c32.9-41.2,95.3-66,146.5-73.7Zm-323.2,0c51.2,7.8,113.6,32.5,146.5,73.6V416.2c-48.1-44-103.1-64.7-146.5-74.4V83.8ZM30.1,401.5V157c10.8.3,22.3.7,34.2,1.1v196a15.1,15.1,0,0,0,12.3,14.8c34.4,6.5,79.1,20.5,120.8,50.6-59.5-13.3-121.7-15.4-167.3-18Zm451.8,0c-45.5,2.6-107.8,4.7-167.2,18,41.7-30.2,86.4-44.2,120.8-50.6a15.1,15.1,0,0,0,12.3-14.8V156.5c13.9-.3,25.7-.3,34.2-.2l-.1,245.2Z" fill="#8e000f"/><path d="M201.9,192.1c-11.7-8.1-31.8-18.1-53.2-21.7a15.067,15.067,0,1,0-5.1,29.7c16.6,2.8,32.5,10.8,41,16.7a15.078,15.078,0,1,0,17.3-24.7Z" fill="#8e000f"/><path d="M200.4,276.9c-10.7-6.6-31.7-18.1-51.7-21.4a15.067,15.067,0,1,0-5.1,29.7c15.6,2.6,33.9,13.1,41,17.4a15.084,15.084,0,0,0,15.8-25.7Z" fill="#8e000f"/><path d="M327.3,216.8a109.876,109.876,0,0,1,41-16.7,15.067,15.067,0,0,0-5.1-29.7C341.7,174,321.6,184,310,192.1a15.078,15.078,0,1,0,17.3,24.7Z" fill="#8e000f"/><path d="M363.3,255.5c-20,3.4-41,14.9-51.7,21.4a15.058,15.058,0,1,0,15.7,25.7c7.1-4.4,25.5-14.8,41-17.4a15.071,15.071,0,0,0,12.3-17.4A14.921,14.921,0,0,0,363.3,255.5Z" fill="#8e000f"/></g></svg>