<svg xmlns="http://www.w3.org/2000/svg" width="360" height="512" viewBox="0 0 360 512"><path d="M406.7,76H346.5A105.682,105.682,0,0,0,245.2,0a20.059,20.059,0,0,0-20,20V76H86.7a20.059,20.059,0,0,0-20,20V492a20.059,20.059,0,0,0,20,20h320a20.059,20.059,0,0,0,20-20V96A20.059,20.059,0,0,0,406.7,76ZM245.2,472H106.7V116H225.2V321a20.059,20.059,0,0,0,20,20,65.5,65.5,0,1,1,0,131Zm65.5-148.1A104.41,104.41,0,0,0,265.2,303V43.1a65.575,65.575,0,0,1,45.5,62.4Zm76,148.1H327.8a105.074,105.074,0,0,0,22.9-65.5V116h36Z" transform="translate(-66.699)" fill="#8e000f"/></svg>