<svg xmlns="http://www.w3.org/2000/svg" width="512" height="441.1" viewBox="0 0 512 441.1"><g transform="translate(0 -35.4)"><path d="M467,240.4H432v-29c0-97-79-176-176-176s-176,79-176,176v29H45a45.068,45.068,0,0,0-45,45v101a45.068,45.068,0,0,0,45,45h65v-220c0-80.5,65.5-146,146-146s146,65.5,146,146v220h65a45.068,45.068,0,0,0,45-45v-101A45.068,45.068,0,0,0,467,240.4Z" fill="#8e000f"/><path d="M256,306.3,140,289V459.3l116,17.2,116-17.2V289ZM241,444l-71-10.5V323.8l71,10.5Zm101-10.5L271,444V334.4l71-10.5Z" fill="#8e000f"/></g></svg>