<svg xmlns="http://www.w3.org/2000/svg" width="354.709" height="512.034" viewBox="0 0 354.709 512.034"><path d="M397.6,325.6c15.9-26.6,26.5-60.3,28.5-93.6,1.3-21.4-3.5-43.8-13.8-65-16.2-33.2-44-51.8-70.9-69.8-20-13.4-39-26.1-52.4-44.2l-2.4-3.2c-7.9-10.6-16.9-22.7-18.3-32.8a19.636,19.636,0,0,0-39.1,2.6V370.5a113.891,113.891,0,0,0-59.1-16.1c-54.3,0-98.5,35.3-98.5,78.8S115.8,512,170.1,512s98.5-35.3,98.5-78.8V203.7c29.6,11.3,78,40.1,91.3,107.3-2.5,3.7-4.8,7.6-7.6,10.8a19.7,19.7,0,1,0,29.6,26,147.7,147.7,0,0,0,14.5-20.3C396.8,326.9,397.2,326.3,397.6,325.6Z" transform="translate(-71.6 0.034)" fill="#8e000f"/></svg>